<?xml version="1.0" standalone="no"?>
<!DOCTYPE svg PUBLIC "-//W3C//DTD SVG 20010904//EN"
 "http://www.w3.org/TR/2001/REC-SVG-20010904/DTD/svg10.dtd">
<svg version="1.0" xmlns="http://www.w3.org/2000/svg"
 width="1012.000000pt" height="1012.000000pt" viewBox="0 0 1012.000000 1012.000000"
 preserveAspectRatio="xMidYMid meet">
<metadata>
Created by potrace 1.14, written by Peter Selinger 2001-2017
</metadata>
<g transform="translate(0.000000,1012.000000) scale(0.100000,-0.100000)"
fill="#000000" stroke="none">
<path d="M1459 9825 c-324 -51 -627 -192 -863 -404 -274 -244 -466 -583 -532
-936 -29 -152 -26 -501 4 -641 92 -427 350 -810 702 -1045 l81 -54 -188 -6
c-167 -5 -196 -9 -261 -32 -96 -33 -161 -76 -227 -150 -94 -104 -135 -212
-135 -357 0 -157 46 -267 154 -375 83 -82 146 -119 248 -144 l73 -18 62 -92
c155 -233 202 -499 128 -731 -52 -163 -164 -355 -214 -366 -147 -33 -207 -64
-303 -160 -203 -202 -200 -542 7 -749 123 -123 223 -154 490 -155 143 -1 176
-4 161 -13 -201 -128 -411 -330 -530 -509 -120 -181 -201 -374 -247 -587 -26
-122 -37 -415 -20 -546 25 -193 100 -425 191 -591 117 -211 332 -445 530 -577
236 -156 482 -246 762 -276 67 -8 1328 -11 4090 -11 3434 0 4002 2 4061 15
206 43 369 206 413 414 17 84 17 129 -1 216 -21 97 -67 185 -135 258 -73 78
-142 120 -250 150 -82 23 -86 26 -124 78 -54 76 -132 241 -157 335 -33 120
-31 298 5 417 31 103 91 228 149 312 41 57 45 60 117 80 110 31 177 70 251
144 76 76 122 161 144 266 18 88 18 132 0 218 -39 183 -164 328 -341 394 -63
24 -86 27 -268 32 l-199 6 84 56 c353 236 612 617 699 1031 94 448 9 892 -247
1278 -98 148 -293 346 -436 442 l-97 66 187 5 c138 3 203 9 243 22 178 55 304
182 366 365 25 75 25 225 0 300 -65 192 -217 334 -400 372 -58 12 -59 14 -109
87 -64 95 -122 219 -149 318 -16 60 -21 107 -21 203 0 137 22 231 82 365 29
63 124 214 144 226 5 4 30 9 55 13 25 3 79 22 120 42 144 69 253 211 287 371
18 86 18 130 0 218 -42 200 -193 358 -392 409 -55 14 -459 16 -4109 15 -3338
-1 -4064 -3 -4135 -14z m8243 -238 c70 -34 140 -110 162 -174 9 -26 16 -76 16
-112 0 -131 -77 -238 -210 -292 -30 -12 -621 -15 -4085 -19 l-4050 -5 -70 -24
c-222 -75 -388 -214 -489 -410 -53 -104 -73 -167 -87 -283 -48 -396 215 -776
613 -885 59 -17 307 -18 4108 -23 l4045 -5 47 -23 c68 -34 134 -104 159 -171
27 -73 23 -185 -10 -249 -29 -57 -87 -113 -147 -143 l-49 -24 -4070 0 c-3903
0 -4073 1 -4155 18 -302 65 -530 188 -741 397 -171 170 -279 343 -353 561 -56
170 -70 260 -70 459 0 191 11 265 66 440 137 433 481 778 922 925 93 31 231
60 331 68 22 2 1844 3 4050 3 l4010 -1 57 -28z m-352 -821 c0 -3 -18 -38 -40
-79 -98 -182 -135 -341 -127 -552 7 -174 28 -257 107 -422 l59 -123 -3867 0
c-3391 0 -3875 2 -3925 15 -209 54 -383 231 -432 437 -75 319 130 643 450 713
49 11 771 14 3918 14 2121 1 3857 -1 3857 -3z m-615 -2283 c299 -72 513 -190
721 -397 214 -214 337 -441 401 -738 26 -119 25 -438 -1 -558 -62 -286 -194
-528 -401 -735 -164 -165 -336 -273 -550 -344 -206 -69 -240 -73 -703 -78
l-412 -5 2 314 3 313 410 5 410 5 87 31 c262 94 455 298 530 561 32 112 32
314 0 428 -80 281 -297 497 -578 578 l-79 22 -4045 5 -4045 5 -50 27 c-64 34
-118 90 -147 153 -31 68 -32 180 -1 246 38 84 116 153 203 180 14 4 1854 7
4090 5 l4065 -1 90 -22z m-150 -838 c212 -55 377 -219 432 -428 66 -254 -61
-540 -294 -665 -124 -66 -174 -72 -575 -72 l-358 0 0 240 0 240 213 0 c194 0
215 2 245 20 61 38 70 114 20 164 l-33 33 -429 7 c-237 3 -1159 3 -2049 0
l-1619 -7 -29 -24 c-52 -44 -47 -134 10 -171 23 -16 112 -17 1016 -22 l990 -5
3 -237 2 -238 -2669 0 -2670 0 54 108 c162 322 162 642 1 965 l-53 107 3866 0
c3457 0 3873 -2 3926 -15z m-1322 -702 c-167 -2 -439 -2 -605 0 -167 1 -31 2
302 2 333 0 469 -1 303 -2z m-1143 -998 l0 -315 -2812 2 -2813 3 -50 25 c-64
31 -131 98 -158 158 -31 68 -30 189 2 254 46 95 137 164 236 178 27 4 1298 8
2823 9 l2772 1 0 -315z m0 -850 l0 -305 -2232 0 c-1446 0 -2258 -4 -2303 -10
-316 -46 -577 -274 -677 -590 -20 -64 -23 -96 -23 -220 0 -171 13 -229 81
-366 51 -104 132 -206 219 -277 71 -57 233 -139 325 -164 61 -17 291 -18 4110
-23 l4045 -5 54 -30 c59 -32 112 -90 137 -151 26 -60 23 -176 -5 -241 -29 -65
-100 -133 -166 -159 -49 -19 -132 -19 -4100 -19 -3797 0 -4056 1 -4141 17
-451 86 -840 383 -1035 792 -102 214 -141 387 -140 630 1 295 75 541 235 780
124 185 265 322 450 437 156 96 395 180 563 198 43 5 1096 9 2341 10 l2262 1
0 -305z m3548 290 c102 -31 190 -139 207 -256 15 -98 -41 -226 -124 -283 -82
-57 -40 -55 -1038 -56 l-923 0 0 305 0 305 913 0 c789 0 920 -2 965 -15z
m-3538 -1103 l5 -274 34 -30 c55 -49 80 -41 366 122 138 78 289 164 337 191
l86 49 344 -195 c220 -125 353 -195 371 -195 15 0 42 7 58 16 54 27 59 56 59
339 l0 255 780 0 c429 0 780 -3 780 -6 0 -3 -15 -33 -34 -67 -92 -164 -136
-332 -136 -519 0 -185 31 -313 121 -491 27 -54 49 -100 49 -102 0 -3 -1743 -4
-3872 -2 -3612 2 -3877 3 -3928 19 -100 32 -181 79 -255 150 -169 160 -228
402 -152 617 74 208 266 365 482 394 17 2 1036 4 2265 3 l2235 -1 5 -273z"/>
<path d="M1624 2211 c-44 -27 -64 -59 -64 -104 0 -69 37 -93 208 -137 59 -15
84 -42 80 -87 -9 -104 -211 -110 -254 -8 -18 43 -51 46 -46 5 10 -94 160 -150
269 -100 75 34 106 119 62 174 -27 35 -57 49 -157 76 -60 16 -88 29 -102 47
-27 34 -25 49 9 84 25 25 37 29 83 29 64 0 98 -16 116 -53 8 -16 21 -27 33
-27 46 0 2 81 -57 106 -49 21 -143 18 -180 -5z"/>
<path d="M1997 2094 c-11 -12 -8 -238 4 -272 12 -34 59 -62 107 -62 16 0 46
11 66 25 44 30 46 30 46 5 0 -11 7 -20 15 -20 13 0 15 25 15 166 0 152 -1 165
-17 162 -16 -3 -18 -18 -21 -125 -2 -115 -4 -122 -29 -147 -19 -20 -36 -26
-68 -26 -67 0 -74 14 -77 165 -3 108 -6 130 -18 133 -9 1 -19 0 -23 -4z"/>
<path d="M2367 2094 c-4 -4 -7 -79 -7 -166 0 -148 1 -158 19 -158 17 0 19 10
22 121 l4 121 33 29 c38 34 74 37 102 9 18 -18 20 -33 20 -150 l0 -130 25 0
25 0 0 121 c0 120 0 121 29 150 34 34 69 37 102 10 23 -18 24 -27 27 -150 3
-121 5 -131 23 -131 18 0 19 8 19 131 0 168 -15 198 -97 199 -30 0 -50 -7 -71
-25 -17 -14 -32 -25 -35 -25 -4 0 -17 11 -31 25 -34 33 -90 34 -139 1 -36 -24
-36 -24 -39 -4 -3 22 -19 33 -31 22z"/>
<path d="M2910 1936 c0 -156 1 -166 19 -166 17 0 19 10 22 121 l4 121 33 29
c38 34 74 37 102 9 18 -18 20 -33 20 -150 l0 -130 25 0 25 0 0 121 c0 120 0
121 29 150 34 34 69 37 102 10 23 -18 24 -27 27 -150 3 -121 5 -131 23 -131
18 0 19 8 19 131 0 168 -15 198 -97 199 -30 0 -50 -7 -71 -25 -17 -14 -32 -25
-35 -25 -4 0 -17 11 -31 25 -34 33 -90 34 -139 1 l-36 -25 -3 22 c-2 12 -11
23 -20 25 -17 3 -18 -10 -18 -162z"/>
<path d="M3513 2085 c-17 -7 -39 -27 -47 -43 -15 -29 -15 -30 9 -35 16 -3 25
0 25 9 0 24 51 54 92 54 46 0 88 -35 88 -74 0 -28 -3 -29 -109 -46 -73 -11
-108 -30 -122 -67 -36 -96 76 -157 183 -99 45 24 47 24 53 5 4 -10 14 -19 24
-19 15 0 17 12 14 128 -5 159 -7 168 -43 187 -36 19 -124 19 -167 0z m164
-191 c-6 -61 -39 -94 -100 -101 -36 -4 -49 -1 -66 16 -25 25 -27 63 -5 82 15
12 125 45 163 48 10 1 12 -10 8 -45z"/>
<path d="M3830 1935 c0 -158 1 -165 20 -165 19 0 20 7 20 98 0 53 5 113 10
133 11 39 44 63 81 57 18 -2 24 2 24 17 0 33 -57 33 -83 1 -25 -33 -42 -33
-42 -1 0 16 -6 25 -15 25 -13 0 -15 -25 -15 -165z"/>
<path d="M4025 2083 c13 -34 107 -288 112 -305 14 -46 -28 -108 -73 -108 -20
0 -25 -4 -20 -16 3 -9 6 -18 6 -20 0 -2 13 -4 29 -4 54 0 69 27 170 300 28 75
53 144 57 154 5 14 2 17 -16 14 -20 -3 -29 -22 -69 -135 -25 -72 -49 -134 -52
-137 -3 -4 -29 56 -56 131 -43 118 -54 138 -73 141 -19 3 -21 0 -15 -15z"/>
</g>
</svg>
